Coordinates
version=1
nRows=21
nColumns=12
inDegrees=yes

Units are S.I. units (second, meters, Newtons, ...)
Angles are in degrees

endheader
time	SC_y	SC_z	SC_x	AC_y	AC_z	AC_x	GH_y	GH_z	GH_yy	EL_x	PS_y
       0.0              -59.32          16.06          79.05           45.2           3.08         -19.03         -135.5          65.99         -166.0          40.83          129.2
   0.03859              -59.32          16.06          79.05           45.2          3.076         -19.03         -135.5          65.98         -165.9          40.83          129.2
   0.07719              -59.32          16.05          79.05           45.2          3.073         -19.03         -135.5          65.96         -165.9          40.82          129.2
    0.1158              -59.32          16.05          79.04           45.2          3.069         -19.03         -135.5          65.95         -165.8          40.82          129.2
    0.1544              -59.31          16.05          79.04           45.2          3.065         -19.02         -135.5          65.93         -165.8          40.82          129.2
     0.193              -59.31          16.04          79.03          45.21          3.061         -19.02         -135.5          65.92         -165.7          40.82          129.2
    0.2316              -59.31          16.04          79.03          45.21          3.057         -19.02         -135.5           65.9         -165.7          40.82          129.2
    0.2701              -59.31          16.04          79.02          45.21          3.052         -19.01         -135.5          65.88         -165.6          40.81          129.2
    0.3087               -59.3          16.03          79.02          45.22          3.047         -19.01         -135.5          65.87         -165.6          40.81          129.2
    0.3473               -59.3          16.03          79.01          45.22          3.042         -19.01         -135.5          65.84         -165.5          40.81          129.2
    0.3859               -59.3          16.02          79.01          45.22          3.036          -19.0         -135.5          65.82         -165.4          40.81          129.2
    0.4245              -59.29          16.01           79.0          45.23           3.03          -19.0         -135.5           65.8         -165.3           40.8          129.2
    0.4631              -59.29          16.01          78.99          45.23          3.023         -18.99         -135.5          65.77         -165.3           40.8          129.2
    0.5017              -59.29           16.0          78.98          45.23          3.016         -18.99         -135.5          65.75         -165.2           40.8          129.2
    0.5403              -59.28          15.99          78.97          45.24          3.008         -18.98         -135.5          65.72         -165.1          40.79          129.2
    0.5789              -59.28          15.99          78.96          45.24          2.999         -18.98         -135.4          65.68         -165.0          40.79          129.2
    0.6175              -59.27          15.98          78.95          45.25           2.99         -18.97         -135.4          65.65         -164.9          40.78          129.2
    0.6561              -59.27          15.97          78.94          45.26           2.98         -18.96         -135.4          65.61         -164.7          40.78          129.2
    0.6947              -59.26          15.96          78.93          45.26          2.969         -18.95         -135.4          65.57         -164.6          40.77          129.2
    0.7333              -59.25          15.95          78.91          45.27          2.957         -18.95         -135.4          65.52         -164.5          40.77          129.2
    0.7719              -59.25          15.93           78.9          45.28          2.943         -18.94         -135.4          65.47         -164.3          40.76          129.2
